<?xml version="1.0" encoding="utf-8"?>
<!-- Generator: Adobe Illustrator 16.0.0, SVG Export Plug-In . SVG Version: 6.00 Build 0)  -->
<!DOCTYPE svg PUBLIC "-//W3C//DTD SVG 1.1//EN" "http://www.w3.org/Graphics/SVG/1.1/DTD/svg11.dtd">
<svg version="1.1" id="Layer_1" xmlns="http://www.w3.org/2000/svg" xmlns:xlink="http://www.w3.org/1999/xlink" x="0px" y="0px"
	 width="50px" height="30px" viewBox="0 0 50 30" enable-background="new 0 0 50 30" xml:space="preserve">
<g>
	<path stroke="#000000" stroke-width="2" stroke-miterlimit="10" d="M14.567,3.144l0.33,6.303h-0.33
		c-0.441-1.887-1.07-3.245-1.888-4.074c-0.818-0.829-1.8-1.244-2.944-1.244c-0.96,0-1.827,0.313-2.603,0.937
		c-0.775,0.625-1.385,1.62-1.829,2.987s-0.667,3.067-0.667,5.1c0,1.677,0.209,3.131,0.629,4.362c0.419,1.23,1.05,2.174,1.894,2.83
		c0.842,0.656,1.804,0.984,2.885,0.984c0.938,0,1.767-0.258,2.485-0.773c0.718-0.514,1.507-1.537,2.367-3.068l0.331,0.273
		c-0.726,1.648-1.571,2.857-2.539,3.623c-0.967,0.766-2.115,1.148-3.444,1.148c-2.396,0-4.252-1.141-5.568-3.418
		c-0.981-1.695-1.472-3.692-1.472-5.989c0-1.85,0.324-3.55,0.971-5.1c0.647-1.549,1.538-2.75,2.672-3.603
		C6.982,3.57,8.221,3.144,9.564,3.144c1.046,0,2.076,0.328,3.094,0.984c0.298,0.201,0.512,0.301,0.64,0.301
		c0.192,0,0.359-0.086,0.501-0.26c0.186-0.246,0.316-0.588,0.395-1.025H14.567z"/>
	<path stroke="#000000" stroke-width="2" stroke-miterlimit="10" d="M21.446,9.214c1.479,0,2.666,0.72,3.563,2.16
		c0.761,1.23,1.142,2.644,1.142,4.239c0,1.121-0.21,2.256-0.63,3.404s-0.997,2.014-1.733,2.598
		c-0.735,0.582-1.556,0.875-2.458,0.875c-1.472,0-2.642-0.752-3.509-2.256c-0.732-1.268-1.099-2.689-1.099-4.266
		c0-1.149,0.222-2.291,0.666-3.425s1.029-1.973,1.755-2.516C19.868,9.486,20.636,9.214,21.446,9.214z M21.115,10.103
		c-0.377,0-0.755,0.144-1.136,0.431c-0.38,0.287-0.688,0.791-0.922,1.511c-0.235,0.72-0.353,1.646-0.353,2.775
		c0,1.823,0.283,3.395,0.848,4.717c0.565,1.32,1.311,1.982,2.235,1.982c0.689,0,1.258-0.365,1.706-1.094
		c0.448-0.73,0.672-1.982,0.672-3.76c0-2.224-0.373-3.974-1.12-5.25C22.541,10.541,21.897,10.103,21.115,10.103z"/>
	<path stroke="#000000" stroke-width="2" stroke-miterlimit="10" d="M26.886,10.828l3.008-1.559h0.405v2.926
		c0.505-1.103,1.012-1.875,1.521-2.317c0.508-0.442,1.043-0.663,1.604-0.663c0.981,0,1.799,0.492,2.453,1.477
		c0.804,1.203,1.205,2.771,1.205,4.703c0,2.161-0.483,3.946-1.45,5.36c-0.796,1.156-1.799,1.736-3.008,1.736
		c-0.526,0-0.981-0.096-1.365-0.287c-0.284-0.137-0.604-0.41-0.96-0.82v3.814c0,0.855,0.041,1.4,0.123,1.633
		c0.081,0.232,0.224,0.418,0.427,0.555c0.202,0.137,0.57,0.205,1.104,0.205v0.506h-5.119V27.59H27.1
		c0.391,0.008,0.725-0.088,1.002-0.287c0.135-0.102,0.24-0.262,0.314-0.486c0.075-0.223,0.112-0.791,0.112-1.701v-11.84
		c0-0.811-0.028-1.326-0.085-1.545c-0.058-0.219-0.147-0.383-0.272-0.492c-0.124-0.109-0.293-0.164-0.507-0.164
		c-0.17,0-0.387,0.064-0.65,0.191L26.886,10.828z M30.299,13.001v4.676c0,1.012,0.032,1.676,0.096,1.996
		c0.1,0.527,0.344,0.992,0.731,1.395c0.387,0.4,0.876,0.602,1.466,0.602c0.711,0,1.287-0.355,1.729-1.066
		c0.575-0.93,0.863-2.238,0.863-3.924c0-1.915-0.327-3.386-0.98-4.417c-0.455-0.711-0.996-1.066-1.622-1.066
		c-0.341,0-0.679,0.109-1.013,0.328C31.313,11.689,30.889,12.181,30.299,13.001z"/>
	<path stroke="#000000" stroke-width="2" stroke-miterlimit="10" d="M37.957,9.583h4.555v0.506h-0.225
		c-0.319,0-0.56,0.089-0.72,0.267s-0.24,0.399-0.24,0.663c0,0.355,0.118,0.848,0.353,1.477l2.378,6.317l2.187-6.918
		c0.121-0.374,0.182-0.743,0.182-1.107c0-0.164-0.025-0.287-0.074-0.369c-0.058-0.1-0.146-0.18-0.267-0.239
		c-0.121-0.059-0.335-0.089-0.641-0.089V9.583h3.179v0.506c-0.264,0.037-0.466,0.109-0.608,0.219
		c-0.142,0.109-0.298,0.314-0.469,0.615c-0.064,0.128-0.186,0.479-0.363,1.053l-3.978,12.497c-0.385,1.211-0.888,2.127-1.51,2.748
		c-0.622,0.619-1.221,0.93-1.797,0.93c-0.42,0-0.765-0.156-1.035-0.465c-0.27-0.311-0.405-0.666-0.405-1.066
		c0-0.383,0.098-0.691,0.294-0.924c0.195-0.232,0.464-0.348,0.805-0.348c0.235,0,0.555,0.1,0.96,0.301
		c0.284,0.137,0.463,0.205,0.533,0.205c0.214,0,0.446-0.143,0.699-0.424c0.252-0.283,0.507-0.83,0.763-1.641l0.693-2.174
		l-3.51-9.448c-0.106-0.282-0.277-0.633-0.512-1.053c-0.178-0.319-0.323-0.533-0.438-0.643c-0.163-0.146-0.427-0.273-0.789-0.383
		V9.583z"/>
</g>
</svg>
