<?xml version="1.0" encoding="utf-8"?>
<!-- Generator: Adobe Illustrator 16.0.0, SVG Export Plug-In . SVG Version: 6.00 Build 0)  -->
<!DOCTYPE svg PUBLIC "-//W3C//DTD SVG 1.1//EN" "http://www.w3.org/Graphics/SVG/1.1/DTD/svg11.dtd">
<svg version="1.1" id="Layer_1" xmlns="http://www.w3.org/2000/svg" xmlns:xlink="http://www.w3.org/1999/xlink" x="0px" y="0px"
	 width="50px" height="30px" viewBox="0 0 50 30" enable-background="new 0 0 50 30" xml:space="preserve">
<g>
	<path stroke="#000000" stroke-width="2" stroke-miterlimit="10" d="M20.479,3.725l0.492,6.925h-0.492
		c-0.657-2.073-1.593-3.565-2.811-4.477s-2.678-1.367-4.382-1.367c-1.429,0-2.721,0.343-3.875,1.029s-2.062,1.78-2.723,3.282
		c-0.662,1.502-0.992,3.37-0.992,5.603c0,1.843,0.312,3.439,0.937,4.792c0.625,1.352,1.564,2.388,2.818,3.109
		c1.254,0.721,2.686,1.081,4.295,1.081c1.397,0,2.63-0.282,3.7-0.849c1.069-0.565,2.244-1.689,3.525-3.372l0.492,0.301
		c-1.08,1.813-2.339,3.139-3.779,3.98c-1.44,0.841-3.149,1.262-5.129,1.262c-3.567,0-6.33-1.252-8.289-3.756
		c-1.461-1.862-2.191-4.056-2.191-6.579c0-2.033,0.482-3.9,1.445-5.603C4.484,7.385,5.81,6.066,7.499,5.129
		c1.688-0.937,3.533-1.405,5.533-1.405c1.556,0,3.091,0.361,4.605,1.082c0.444,0.221,0.762,0.331,0.953,0.331
		c0.286,0,0.535-0.095,0.746-0.285c0.275-0.271,0.471-0.646,0.588-1.127H20.479z"/>
	<path stroke="#000000" stroke-width="2" stroke-miterlimit="10" d="M33.008,10.395v4.687h-0.523
		c-0.402-1.472-0.92-2.474-1.549-3.004c-0.631-0.531-1.432-0.796-2.406-0.796c-0.74,0-1.338,0.185-1.793,0.556
		s-0.684,0.781-0.684,1.232c0,0.561,0.17,1.042,0.508,1.442c0.328,0.411,0.996,0.846,2.002,1.306l2.316,1.067
		c2.15,0.991,3.225,2.298,3.225,3.921c0,1.251-0.5,2.26-1.5,3.026c-1.002,0.766-2.121,1.149-3.359,1.149
		c-0.889,0-1.904-0.15-3.049-0.451c-0.35-0.1-0.635-0.15-0.857-0.15c-0.244,0-0.434,0.131-0.572,0.391h-0.524v-4.912h0.524
		c0.296,1.402,0.862,2.459,1.698,3.17s1.773,1.066,2.811,1.066c0.73,0,1.326-0.202,1.787-0.608c0.461-0.405,0.691-0.894,0.691-1.465
		c0-0.69-0.258-1.271-0.771-1.742s-1.537-1.066-3.072-1.787c-1.535-0.722-2.54-1.372-3.017-1.953
		c-0.476-0.571-0.714-1.292-0.714-2.163c0-1.131,0.41-2.078,1.23-2.839c0.821-0.761,1.881-1.142,3.184-1.142
		c0.57,0,1.264,0.115,2.08,0.345c0.539,0.15,0.898,0.226,1.08,0.226c0.168,0,0.301-0.035,0.396-0.105
		c0.096-0.07,0.207-0.225,0.334-0.465H33.008z"/>
	<path stroke="#000000" stroke-width="2" stroke-miterlimit="10" d="M45.662,10.395v4.687h-0.523
		c-0.402-1.472-0.919-2.474-1.549-3.004s-1.432-0.796-2.405-0.796c-0.741,0-1.339,0.185-1.794,0.556s-0.683,0.781-0.683,1.232
		c0,0.561,0.169,1.042,0.508,1.442c0.328,0.411,0.995,0.846,2.001,1.306l2.317,1.067c2.149,0.991,3.224,2.298,3.224,3.921
		c0,1.251-0.5,2.26-1.5,3.026c-1.001,0.766-2.12,1.149-3.358,1.149c-0.89,0-1.905-0.15-3.049-0.451c-0.35-0.1-0.635-0.15-0.857-0.15
		c-0.244,0-0.435,0.131-0.571,0.391h-0.524v-4.912h0.524c0.296,1.402,0.862,2.459,1.698,3.17s1.773,1.066,2.811,1.066
		c0.73,0,1.326-0.202,1.786-0.608c0.461-0.405,0.691-0.894,0.691-1.465c0-0.69-0.257-1.271-0.771-1.742s-1.538-1.066-3.072-1.787
		c-1.535-0.722-2.541-1.372-3.017-1.953c-0.477-0.571-0.715-1.292-0.715-2.163c0-1.131,0.41-2.078,1.23-2.839
		s1.882-1.142,3.184-1.142c0.571,0,1.265,0.115,2.08,0.345c0.54,0.15,0.899,0.226,1.08,0.226c0.169,0,0.302-0.035,0.396-0.105
		c0.096-0.07,0.207-0.225,0.334-0.465H45.662z"/>
</g>
</svg>
