<?xml version="1.0" encoding="utf-8"?>
<!-- Generator: Adobe Illustrator 16.0.0, SVG Export Plug-In . SVG Version: 6.00 Build 0)  -->
<!DOCTYPE svg PUBLIC "-//W3C//DTD SVG 1.1//EN" "http://www.w3.org/Graphics/SVG/1.1/DTD/svg11.dtd">
<svg version="1.1" id="Layer_1" xmlns="http://www.w3.org/2000/svg" xmlns:xlink="http://www.w3.org/1999/xlink" x="0px" y="0px"
	 width="50px" height="30px" viewBox="0 0 50 30" enable-background="new 0 0 50 30" xml:space="preserve">
<g>
	<path stroke="#000000" stroke-width="2" stroke-miterlimit="10" d="M4.989,14.33h5.845V8.501c0-1.042-0.041-1.728-0.121-2.058
		c-0.062-0.25-0.192-0.466-0.39-0.646c-0.266-0.241-0.547-0.361-0.844-0.361H9.034V4.881h5.381v0.556H13.97
		c-0.297,0-0.579,0.115-0.844,0.346c-0.198,0.16-0.333,0.403-0.403,0.729c-0.071,0.326-0.107,0.989-0.107,1.99v13.144
		c0,1.032,0.04,1.713,0.121,2.043c0.062,0.251,0.188,0.466,0.38,0.646c0.272,0.24,0.557,0.36,0.854,0.36h0.445v0.556H9.034v-0.556
		h0.445c0.513,0,0.887-0.245,1.123-0.736c0.154-0.32,0.232-1.091,0.232-2.313v-6.204H4.989v6.204c0,1.032,0.04,1.713,0.121,2.043
		c0.062,0.251,0.191,0.466,0.39,0.646c0.266,0.24,0.547,0.36,0.844,0.36h0.455v0.556h-5.39v-0.556h0.445
		c0.52,0,0.896-0.245,1.132-0.736c0.148-0.32,0.223-1.091,0.223-2.313V8.501c0-1.042-0.041-1.728-0.121-2.058
		c-0.062-0.25-0.189-0.466-0.38-0.646C2.435,5.557,2.15,5.437,1.854,5.437H1.408V4.881h5.39v0.556H6.344
		c-0.297,0-0.579,0.115-0.844,0.346c-0.192,0.16-0.325,0.403-0.399,0.729C5.026,6.836,4.989,7.5,4.989,8.501V14.33z"/>
	<path stroke="#000000" stroke-width="2" stroke-miterlimit="10" d="M17.866,6.969v4.521h1.985v1.052h-1.985v8.923
		c0,0.892,0.079,1.492,0.236,1.803c0.158,0.311,0.36,0.465,0.608,0.465c0.204,0,0.402-0.103,0.594-0.308
		c0.191-0.205,0.34-0.508,0.445-0.909h0.362c-0.217,0.982-0.523,1.721-0.918,2.216c-0.396,0.496-0.804,0.744-1.225,0.744
		c-0.285,0-0.563-0.128-0.835-0.384c-0.272-0.255-0.473-0.62-0.603-1.096s-0.195-1.21-0.195-2.201v-9.253H14.99v-0.496
		c0.34-0.22,0.688-0.593,1.044-1.119c0.355-0.526,0.672-1.149,0.951-1.871c0.142-0.38,0.34-1.076,0.594-2.088H17.866z"/>
	<path stroke="#000000" stroke-width="2" stroke-miterlimit="10" d="M23.201,14.014c0.618-1.001,0.983-1.578,1.095-1.728
		c0.278-0.38,0.578-0.676,0.9-0.886c0.321-0.21,0.641-0.315,0.955-0.315c0.533,0,0.99,0.25,1.373,0.751
		c0.385,0.501,0.641,1.227,0.771,2.178c0.637-1.202,1.174-1.991,1.613-2.366s0.891-0.563,1.355-0.563
		c0.451,0,0.852,0.188,1.201,0.563c0.348,0.375,0.625,0.989,0.83,1.84c0.135,0.581,0.203,1.492,0.203,2.734v5.918
		c0,0.861,0.041,1.452,0.121,1.772c0.063,0.221,0.176,0.408,0.344,0.563c0.166,0.155,0.439,0.232,0.816,0.232v0.541h-4.193v-0.541
		h0.176c0.365,0,0.65-0.115,0.854-0.346c0.143-0.159,0.244-0.415,0.307-0.766c0.023-0.17,0.037-0.656,0.037-1.457v-5.918
		c0-1.122-0.084-1.913-0.25-2.374c-0.242-0.641-0.629-0.961-1.16-0.961c-0.328,0-0.658,0.133-0.988,0.398
		c-0.332,0.265-0.732,0.758-1.201,1.479l-0.02,0.165l0.02,0.646v6.564c0,0.941,0.031,1.527,0.098,1.758
		c0.064,0.23,0.186,0.423,0.365,0.578s0.486,0.232,0.92,0.232v0.541h-4.296v-0.541c0.47,0,0.792-0.09,0.97-0.271
		c0.176-0.18,0.297-0.45,0.365-0.811c0.031-0.171,0.047-0.666,0.047-1.487v-5.918c0-1.122-0.102-1.928-0.307-2.419
		c-0.271-0.641-0.652-0.961-1.141-0.961c-0.334,0-0.665,0.146-0.993,0.436c-0.514,0.441-0.909,0.937-1.188,1.487v7.375
		c0,0.901,0.039,1.487,0.116,1.758c0.077,0.27,0.191,0.473,0.343,0.608c0.152,0.135,0.459,0.202,0.923,0.202v0.541H20.38v-0.541
		c0.39,0,0.662-0.067,0.816-0.202c0.154-0.136,0.272-0.351,0.353-0.646c0.08-0.295,0.121-0.868,0.121-1.72v-5.258
		c0-1.512-0.028-2.488-0.083-2.929c-0.043-0.331-0.111-0.559-0.204-0.684s-0.22-0.188-0.38-0.188c-0.173,0-0.38,0.075-0.622,0.226
		l-0.139-0.541l2.561-1.682h0.399V14.014z"/>
	<path stroke="#000000" stroke-width="2" stroke-miterlimit="10" d="M38.378,3.89v18.251c0,0.861,0.039,1.433,0.116,1.712
		c0.077,0.281,0.196,0.494,0.357,0.639c0.161,0.146,0.461,0.218,0.899,0.218v0.541h-4.165v-0.541c0.39,0,0.655-0.064,0.798-0.195
		c0.143-0.13,0.254-0.346,0.334-0.646c0.08-0.301,0.121-0.876,0.121-1.728V9.643c0-1.552-0.022-2.506-0.065-2.861
		s-0.113-0.599-0.209-0.729c-0.096-0.13-0.218-0.195-0.366-0.195c-0.161,0-0.365,0.08-0.612,0.24l-0.157-0.526l2.532-1.682H38.378z"
		/>
	<path stroke="#000000" stroke-width="2" stroke-miterlimit="10" d="M48.389,4.881l-0.725,2.554h-3.785l-0.825,2.734
		c1.639,0.391,2.938,1.377,3.896,2.959c0.822,1.362,1.233,2.964,1.233,4.807c0,1.071-0.134,2.063-0.403,2.975
		c-0.269,0.911-0.607,1.688-1.016,2.328s-0.862,1.156-1.364,1.547c-0.711,0.551-1.44,0.826-2.189,0.826
		c-0.754,0-1.303-0.208-1.646-0.623c-0.343-0.416-0.515-0.874-0.515-1.375c0-0.28,0.071-0.527,0.214-0.743
		c0.142-0.215,0.321-0.323,0.537-0.323c0.161,0,0.302,0.04,0.423,0.12c0.12,0.08,0.326,0.286,0.616,0.616
		c0.465,0.521,0.935,0.781,1.41,0.781c0.725,0,1.359-0.443,1.907-1.329c0.547-0.887,0.821-1.966,0.821-3.237
		c0-1.232-0.245-2.381-0.733-3.448c-0.488-1.066-1.163-1.89-2.022-2.471c-0.674-0.451-1.593-0.711-2.756-0.781l2.412-7.917H48.389z"
		/>
</g>
</svg>
