<?xml version="1.0" encoding="utf-8"?>
<!-- Generator: Adobe Illustrator 16.0.0, SVG Export Plug-In . SVG Version: 6.00 Build 0)  -->
<!DOCTYPE svg PUBLIC "-//W3C//DTD SVG 1.1//EN" "http://www.w3.org/Graphics/SVG/1.1/DTD/svg11.dtd">
<svg version="1.1" id="Layer_1" xmlns="http://www.w3.org/2000/svg" xmlns:xlink="http://www.w3.org/1999/xlink" x="0px" y="0px"
	 width="50px" height="30px" viewBox="0 0 50 30" enable-background="new 0 0 50 30" xml:space="preserve">
<g>
	<path stroke="#000000" stroke-width="2" stroke-miterlimit="10" d="M2.865,4.634V4.128h5.108v0.506H7.542
		c-0.486,0-0.841,0.224-1.063,0.67C6.338,5.596,6.268,6.297,6.268,7.409v9.064c0,1.395-0.098,2.524-0.294,3.391
		c-0.197,0.866-0.535,1.62-1.016,2.263s-1.061,0.964-1.741,0.964c-0.551,0-0.984-0.212-1.301-0.636
		c-0.316-0.424-0.475-0.909-0.475-1.456c0-0.446,0.073-0.784,0.22-1.012c0.193-0.282,0.419-0.424,0.677-0.424
		c0.188,0,0.356,0.096,0.505,0.287s0.338,0.702,0.567,1.531c0.135,0.492,0.308,0.738,0.519,0.738c0.159,0,0.307-0.15,0.444-0.451
		s0.207-0.834,0.207-1.6V7.409c0-0.938-0.038-1.559-0.114-1.859C4.407,5.322,4.284,5.126,4.096,4.962
		c-0.252-0.219-0.519-0.328-0.8-0.328H2.865z"/>
	<path stroke="#000000" stroke-width="2" stroke-miterlimit="10" d="M15.771,9.774V25.88c0,0.802,0.035,1.317,0.105,1.545
		s0.18,0.405,0.33,0.533s0.441,0.191,0.875,0.191v0.506H13.02v-0.506h0.167c0.328,0,0.577-0.073,0.747-0.219
		c0.117-0.101,0.211-0.28,0.281-0.54s0.105-0.764,0.105-1.511v-5.387c-0.533,0.984-0.999,1.656-1.397,2.017
		c-0.399,0.36-0.812,0.54-1.24,0.54c-0.78,0-1.476-0.552-2.088-1.654c-0.613-1.103-0.919-2.579-0.919-4.43
		c0-2.124,0.405-3.853,1.213-5.188c0.809-1.335,1.785-2.003,2.927-2.003c0.334,0,0.642,0.073,0.923,0.219
		c0.281,0.146,0.533,0.365,0.756,0.656c0.34-0.255,0.665-0.547,0.976-0.875H15.771z M14.32,19.632v-5.879
		c0-0.684-0.057-1.221-0.171-1.613c-0.114-0.392-0.318-0.725-0.611-0.998c-0.293-0.273-0.624-0.41-0.994-0.41
		c-0.656,0-1.219,0.433-1.688,1.299c-0.469,0.866-0.703,2.179-0.703,3.938c0,1.687,0.239,2.967,0.716,3.842
		c0.478,0.875,1.054,1.313,1.728,1.313c0.346,0,0.654-0.116,0.923-0.349S14.057,20.16,14.32,19.632z"/>
	<path stroke="#000000" stroke-width="2" stroke-miterlimit="10" d="M24.703,10.144v7.588c0,1.449,0.022,2.336,0.066,2.659
		s0.114,0.549,0.211,0.677s0.209,0.191,0.338,0.191c0.182,0,0.387-0.077,0.616-0.232l0.123,0.479l-2.409,1.545h-0.396v-2.652
		c-0.691,1.167-1.219,1.9-1.583,2.201s-0.747,0.451-1.151,0.451c-0.452,0-0.843-0.203-1.174-0.608s-0.561-0.928-0.69-1.565
		s-0.193-1.54-0.193-2.707v-5.592c0-0.592-0.041-1.002-0.123-1.23c-0.083-0.228-0.204-0.403-0.365-0.526s-0.453-0.18-0.875-0.171
		v-0.506h2.822v8.381c0,1.167,0.13,1.933,0.392,2.297c0.261,0.364,0.576,0.547,0.945,0.547c0.252,0,0.538-0.123,0.857-0.369
		c0.319-0.246,0.699-0.716,1.138-1.408v-7.096c0-0.711-0.083-1.191-0.25-1.442c-0.167-0.25-0.514-0.385-1.042-0.403v-0.506H24.703z"
		/>
	<path stroke="#000000" stroke-width="2" stroke-miterlimit="10" d="M27.999,14.86c-0.006,1.859,0.285,3.317,0.871,4.375
		s1.274,1.586,2.065,1.586c0.527,0,0.986-0.226,1.376-0.677s0.717-1.224,0.98-2.317l0.272,0.273
		c-0.123,1.249-0.48,2.386-1.072,3.411c-0.593,1.025-1.334,1.538-2.225,1.538c-0.967,0-1.795-0.586-2.483-1.757
		s-1.033-2.746-1.033-4.724c0-2.142,0.354-3.812,1.06-5.011c0.706-1.198,1.593-1.798,2.659-1.798c0.902,0,1.645,0.463,2.225,1.388
		c0.58,0.925,0.87,2.163,0.87,3.712H27.999z M27.999,14.067h3.728c-0.029-0.802-0.091-1.367-0.185-1.695
		c-0.146-0.51-0.364-0.911-0.654-1.203c-0.29-0.292-0.594-0.438-0.91-0.438c-0.486,0-0.922,0.294-1.306,0.882
		S28.063,13.02,27.999,14.067z"/>
	<path stroke="#000000" stroke-width="2" stroke-miterlimit="10" d="M36.993,9.774v2.816c0.674-1.877,1.365-2.816,2.074-2.816
		c0.322,0,0.589,0.153,0.8,0.458c0.212,0.306,0.317,0.659,0.317,1.06c0,0.355-0.076,0.656-0.229,0.902
		c-0.153,0.246-0.335,0.369-0.546,0.369c-0.205,0-0.435-0.157-0.689-0.472s-0.444-0.472-0.567-0.472
		c-0.105,0-0.22,0.091-0.343,0.273c-0.264,0.374-0.536,0.989-0.817,1.846v6.002c0,0.692,0.056,1.217,0.167,1.572
		c0.076,0.246,0.211,0.451,0.404,0.615s0.472,0.246,0.835,0.246v0.492h-4.123v-0.492c0.41,0,0.715-0.101,0.914-0.301
		c0.146-0.146,0.249-0.378,0.308-0.697c0.029-0.155,0.044-0.597,0.044-1.326v-4.854c0-1.458-0.019-2.326-0.057-2.604
		c-0.038-0.278-0.108-0.48-0.211-0.608c-0.103-0.127-0.23-0.191-0.383-0.191c-0.182,0-0.387,0.068-0.615,0.205l-0.088-0.492
		l2.436-1.531H36.993z"/>
	<path stroke="#000000" stroke-width="2" stroke-miterlimit="10" d="M40.176,10.144h3.754v0.506h-0.185
		c-0.264,0-0.462,0.089-0.594,0.267s-0.197,0.399-0.197,0.663c0,0.355,0.097,0.848,0.29,1.477l1.96,6.316l1.803-6.918
		c0.1-0.374,0.149-0.743,0.149-1.107c0-0.164-0.021-0.287-0.062-0.369c-0.047-0.1-0.12-0.18-0.22-0.239
		c-0.1-0.059-0.275-0.089-0.527-0.089v-0.506h2.619v0.506c-0.217,0.037-0.384,0.109-0.501,0.219s-0.246,0.314-0.387,0.615
		c-0.053,0.128-0.152,0.479-0.299,1.053l-3.279,12.496c-0.316,1.212-0.731,2.128-1.244,2.748s-1.006,0.93-1.481,0.93
		c-0.346,0-0.63-0.155-0.853-0.465s-0.334-0.665-0.334-1.066c0-0.383,0.081-0.69,0.242-0.923s0.382-0.349,0.663-0.349
		c0.193,0,0.457,0.101,0.792,0.301c0.234,0.137,0.381,0.205,0.439,0.205c0.176,0,0.367-0.142,0.575-0.424s0.418-0.829,0.629-1.641
		l0.571-2.174l-2.893-9.447c-0.088-0.282-0.229-0.633-0.422-1.053c-0.146-0.319-0.267-0.533-0.36-0.643
		c-0.135-0.146-0.352-0.273-0.65-0.383V10.144z"/>
</g>
</svg>
