<?xml version="1.0" encoding="utf-8"?>
<!-- Generator: Adobe Illustrator 16.0.0, SVG Export Plug-In . SVG Version: 6.00 Build 0)  -->
<!DOCTYPE svg PUBLIC "-//W3C//DTD SVG 1.1//EN" "http://www.w3.org/Graphics/SVG/1.1/DTD/svg11.dtd">
<svg version="1.1" id="Layer_1" xmlns="http://www.w3.org/2000/svg" xmlns:xlink="http://www.w3.org/1999/xlink" x="0px" y="0px"
	 width="50px" height="30px" viewBox="0 0 50 30" enable-background="new 0 0 50 30" xml:space="preserve">
<g>
	<path stroke="#000000" stroke-width="2" stroke-miterlimit="10" d="M14.387,5.407l0.176,4.777h-0.445
		c-0.086-0.841-0.203-1.442-0.352-1.803c-0.242-0.581-0.564-1.009-0.967-1.284s-0.932-0.413-1.588-0.413H8.973v15.562
		c0,1.252,0.105,2.033,0.316,2.344c0.297,0.421,0.754,0.631,1.371,0.631h0.551v0.556H4.473v-0.556h0.563
		c0.672,0,1.148-0.261,1.43-0.781c0.172-0.32,0.258-1.052,0.258-2.193V6.684h-1.91c-0.742,0-1.27,0.07-1.582,0.21
		C2.824,7.085,2.477,7.45,2.188,7.991c-0.289,0.541-0.461,1.272-0.516,2.193H1.227l0.188-4.777H14.387z"/>
	<path stroke="#000000" stroke-width="2" stroke-miterlimit="10" d="M19.484,11.611c1.625,0,2.93,0.791,3.914,2.373
		c0.836,1.352,1.254,2.904,1.254,4.657c0,1.231-0.23,2.479-0.691,3.74s-1.096,2.213-1.904,2.854s-1.709,0.962-2.701,0.962
		c-1.617,0-2.902-0.826-3.855-2.479c-0.805-1.393-1.207-2.954-1.207-4.688c0-1.262,0.244-2.516,0.732-3.762
		c0.488-1.247,1.131-2.168,1.928-2.764C17.75,11.909,18.594,11.611,19.484,11.611z M19.121,12.587c-0.414,0-0.83,0.158-1.248,0.473
		s-0.756,0.869-1.014,1.66s-0.387,1.808-0.387,3.049c0,2.003,0.311,3.73,0.932,5.183s1.439,2.179,2.455,2.179
		c0.758,0,1.383-0.4,1.875-1.202c0.492-0.801,0.738-2.178,0.738-4.131c0-2.443-0.41-4.366-1.23-5.768
		C20.688,13.068,19.98,12.587,19.121,12.587z"/>
	<path stroke="#000000" stroke-width="2" stroke-miterlimit="10" d="M29.352,7.495v4.521h2.508v1.052h-2.508v8.923
		c0,0.892,0.1,1.492,0.299,1.803s0.455,0.465,0.768,0.465c0.258,0,0.508-0.103,0.75-0.308s0.43-0.508,0.563-0.909h0.457
		c-0.273,0.982-0.66,1.721-1.16,2.216c-0.5,0.496-1.016,0.744-1.547,0.744c-0.359,0-0.711-0.128-1.055-0.384
		c-0.344-0.255-0.598-0.62-0.762-1.096s-0.246-1.21-0.246-2.201v-9.253h-1.699v-0.496c0.43-0.22,0.869-0.593,1.318-1.119
		c0.449-0.526,0.85-1.149,1.201-1.871c0.18-0.38,0.43-1.076,0.75-2.088H29.352z"/>
	<path stroke="#000000" stroke-width="2" stroke-miterlimit="10" d="M38.984,23.794c-1.102,1.091-1.793,1.722-2.074,1.893
		c-0.422,0.25-0.871,0.375-1.348,0.375c-0.742,0-1.354-0.325-1.834-0.977c-0.48-0.65-0.721-1.507-0.721-2.568
		c0-0.671,0.117-1.252,0.352-1.742c0.32-0.681,0.877-1.322,1.67-1.923s2.111-1.332,3.955-2.193v-0.541
		c0-1.372-0.17-2.313-0.51-2.824s-0.834-0.766-1.482-0.766c-0.492,0-0.883,0.17-1.172,0.511c-0.297,0.341-0.445,0.731-0.445,1.172
		l0.023,0.871c0,0.461-0.092,0.816-0.275,1.066c-0.184,0.251-0.424,0.376-0.721,0.376c-0.289,0-0.525-0.13-0.709-0.391
		s-0.275-0.616-0.275-1.067c0-0.861,0.344-1.652,1.031-2.373c0.688-0.721,1.652-1.082,2.895-1.082c0.953,0,1.734,0.205,2.344,0.616
		c0.461,0.311,0.801,0.796,1.02,1.457c0.141,0.431,0.211,1.312,0.211,2.644V21c0,1.312,0.02,2.115,0.059,2.41
		c0.039,0.296,0.104,0.494,0.193,0.594c0.09,0.101,0.193,0.15,0.311,0.15c0.125,0,0.234-0.035,0.328-0.105
		c0.164-0.13,0.48-0.496,0.949-1.097v0.842c-0.875,1.502-1.711,2.253-2.508,2.253c-0.383,0-0.688-0.171-0.914-0.511
		C39.109,25.195,38.992,24.615,38.984,23.794z M38.984,22.817v-5.243c-1.18,0.602-1.941,1.027-2.285,1.277
		c-0.617,0.44-1.059,0.901-1.324,1.382s-0.398,1.007-0.398,1.577c0,0.721,0.168,1.319,0.504,1.795s0.723,0.714,1.16,0.714
		C37.234,24.319,38.016,23.818,38.984,22.817z"/>
	<path stroke="#000000" stroke-width="2" stroke-miterlimit="10" d="M47.246,4.416v18.251c0,0.861,0.049,1.433,0.146,1.712
		c0.098,0.281,0.248,0.494,0.451,0.639c0.203,0.146,0.582,0.218,1.137,0.218v0.541h-5.262v-0.541c0.492,0,0.828-0.064,1.008-0.195
		c0.18-0.13,0.32-0.346,0.422-0.646c0.102-0.301,0.152-0.876,0.152-1.728V10.169c0-1.552-0.027-2.506-0.082-2.861
		s-0.143-0.599-0.264-0.729c-0.121-0.13-0.275-0.195-0.463-0.195c-0.203,0-0.461,0.08-0.773,0.24L43.52,6.098l3.199-1.682H47.246z"
		/>
</g>
</svg>
